<!DOCTYPE svg PUBLIC "-//W3C//DTD SVG 20010904//EN" "http://www.w3.org/TR/2001/REC-SVG-20010904/DTD/svg10.dtd">
<svg version="1.0" xmlns="http://www.w3.org/2000/svg" width="300px" height="300px" viewBox="0 0 300 300" preserveAspectRatio="xMidYMid meet">
 <g id="layer101" fill="#c3073f" stroke="none">
  <path d="M136.1111 296.8889 c-2.0556 -0.1389 -4 -0.3611 -4.3056 -0.4722 -0.3056 -0.1389 -2.1111 -0.4167 -4.0278 -0.5833 -1.9167 -0.1944 -3.5833 -0.4444 -3.75 -0.5556 -0.1389 -0.1111 -1.3333 -0.3611 -2.6389 -0.5278 -1.3056 -0.1944 -2.6111 -0.4444 -2.9167 -0.5833 -0.3056 -0.1389 -1.3611 -0.3611 -2.3611 -0.5556 -1 -0.1667 -2.0556 -0.4167 -2.3611 -0.5278 -0.3056 -0.1389 -1.3056 -0.4444 -2.2222 -0.6667 -3.2222 -0.8056 -5.2778 -1.3889 -5.5556 -1.5833 -0.1389 -0.1111 -0.9722 -0.3611 -1.8056 -0.5556 -0.8333 -0.1944 -1.6389 -0.4444 -1.8056 -0.5278 -0.1389 -0.1111 -0.7778 -0.3611 -1.3889 -0.5556 -0.6111 -0.1944 -1.3611 -0.4444 -1.6667 -0.5556 -0.3056 -0.1389 -1.6111 -0.6389 -2.9167 -1.1389 -2.75 -1.0278 -2.5278 -0.9444 -6.6667 -2.7778 -5.0833 -2.25 -12.5 -6.0556 -14.6389 -7.5278 -0.6389 -0.4444 -1.2222 -0.8056 -1.3333 -0.8056 -0.25 0 -2.5 -1.5 -2.5833 -1.7222 -0.0556 -0.1389 -0.2222 -0.2222 -0.3889 -0.2222 -0.3056 0 -3.6667 -2.1389 -5.0833 -3.25 -0.9444 -0.7222 -1.2222 -0.9167 -1.8611 -1.3333 -1.7778 -1.1389 -9.4167 -7.2222 -9.6111 -7.6944 -0.0556 -0.1111 -0.2778 -0.2222 -0.5 -0.2222 -0.4722 0 -15.6667 -15.0833 -15.6667 -15.5556 0 -0.1667 -1.0833 -1.5278 -2.3889 -3 -1.3056 -1.4722 -2.4722 -2.8889 -2.5556 -3.1111 -0.0833 -0.2222 -0.8333 -1.25 -1.6389 -2.2778 -0.8056 -1.0278 -1.4722 -1.9444 -1.4722 -2.0556 0 -0.0833 -0.6111 -0.9444 -1.3889 -1.9167 -0.7778 -0.9722 -1.3889 -1.8611 -1.3889 -1.9722 0 -0.1389 -0.3889 -0.75 -0.8333 -1.3333 -0.4722 -0.6111 -0.8333 -1.2222 -0.8333 -1.3333 0 -0.1389 -0.4444 -0.8333 -0.9722 -1.5278 -0.5278 -0.6944 -0.9722 -1.4444 -0.9722 -1.6389 0 -0.1944 -0.1667 -0.4722 -0.3611 -0.5833 -0.1944 -0.1111 -0.5 -0.5278 -0.6944 -0.9167 -0.1944 -0.3889 -0.8889 -1.6944 -1.5556 -2.9167 -1.1111 -2 -4.1944 -8.1111 -5.8889 -11.6667 -0.3611 -0.7778 -0.6667 -1.6111 -0.6667 -1.8889 0 -0.25 -0.1111 -0.4722 -0.2222 -0.4722 -0.1389 0 -0.4167 -0.5278 -0.6111 -1.1667 -0.2222 -0.6667 -0.5278 -1.4444 -0.7222 -1.75 -0.1944 -0.3056 -0.4444 -1.0278 -0.5278 -1.5833 -0.1111 -0.5833 -0.3056 -1.0556 -0.4167 -1.0556 -0.1111 0 -0.3611 -0.5833 -0.5556 -1.3056 -0.1944 -0.75 -0.4722 -1.4722 -0.5833 -1.6389 -0.1389 -0.1667 -0.1667 -0.3611 -0.0833 -0.4722 0.0833 -0.0833 -0.0278 -0.4444 -0.25 -0.8056 -0.25 -0.3333 -0.5278 -1.1389 -0.6389 -1.7222 -0.1111 -0.6111 -0.3611 -1.4167 -0.5556 -1.8056 -0.2222 -0.3889 -0.3889 -0.9444 -0.3889 -1.1944 0 -0.25 -0.1389 -0.5556 -0.2778 -0.6389 -0.1667 -0.1111 -0.2222 -0.3056 -0.1111 -0.4444 0.0833 -0.1389 0.0556 -0.4167 -0.0833 -0.6111 -0.1667 -0.1944 -0.4444 -1.0833 -0.6389 -2 -0.1944 -0.9167 -0.4722 -1.7778 -0.5556 -1.9444 -0.1111 -0.1389 -0.3611 -1.1389 -0.5556 -2.2222 -0.1944 -1.0556 -0.4444 -2.0556 -0.5556 -2.2222 -0.1111 -0.1389 -0.3611 -1.3889 -0.5556 -2.7778 -0.1944 -1.3611 -0.4444 -2.6111 -0.5556 -2.7778 -0.1389 -0.1389 -0.3889 -1.5833 -0.5556 -3.1944 -0.1667 -1.6111 -0.4444 -3.1667 -0.5556 -3.4722 -0.2778 -0.6389 -0.8333 -6.8333 -0.8333 -9.1667 0 -0.8333 -0.1111 -1.5278 -0.2778 -1.5278 -0.1667 0 -0.2778 -3.6111 -0.2778 -10.2778 0 -6.6667 0.1111 -10.2778 0.2778 -10.2778 0.1667 0 0.2778 -0.6944 0.2778 -1.5278 0 -2.3333 0.5556 -8.5278 0.8333 -9.1667 0.1111 -0.3056 0.3889 -1.8611 0.5556 -3.4722 0.1667 -1.6111 0.4167 -3.0278 0.5556 -3.1944 0.1111 -0.1389 0.3611 -1.3889 0.5556 -2.7778 0.1944 -1.3611 0.4444 -2.6111 0.5556 -2.7778 0.1111 -0.1389 0.3611 -1.1389 0.5556 -2.2222 0.1944 -1.0556 0.4167 -2.0556 0.5278 -2.2222 0.25 -0.4444 0.8333 -2.7222 0.8611 -3.3889 0 -0.3611 0.1389 -0.6389 0.3056 -0.6389 0.1667 0 0.25 -0.1944 0.1667 -0.4167 -0.1111 -0.2222 -0.0556 -0.4722 0.0833 -0.5556 0.1111 -0.0833 0.3056 -0.6389 0.4167 -1.25 0.1111 -0.6111 0.2778 -1.1111 0.4167 -1.1111 0.1111 0 0.2778 -0.5278 0.3889 -1.1944 0.1111 -0.6389 0.3889 -1.4722 0.6111 -1.8056 0.25 -0.3611 0.3611 -0.7222 0.2778 -0.8056 -0.0833 -0.1111 -0.0556 -0.3056 0.0833 -0.4722 0.1111 -0.1667 0.3889 -0.8889 0.5833 -1.6389 0.1944 -0.7222 0.4444 -1.3056 0.5556 -1.3056 0.1111 0 0.3056 -0.4722 0.4167 -1.0278 0.0833 -0.5833 0.3333 -1.3056 0.5278 -1.6111 0.1944 -0.3056 0.5 -1.0833 0.7222 -1.75 0.1944 -0.6389 0.4722 -1.1667 0.6111 -1.1667 0.1111 0 0.2222 -0.2222 0.2222 -0.4722 0 -0.2778 0.3056 -1.1111 0.6667 -1.8889 1.8333 -3.8333 4.7778 -9.6944 5.8611 -11.6667 0.6667 -1.2222 1.3889 -2.5278 1.5833 -2.9167 0.1944 -0.3889 0.5 -0.8056 0.6944 -0.9167 0.1944 -0.1111 0.3611 -0.3611 0.3611 -0.5278 0 -0.3611 1.4167 -2.5278 1.7222 -2.6667 0.1389 -0.0556 0.2222 -0.25 0.2222 -0.4444 0 -0.1944 0.3611 -0.8333 0.8333 -1.4444 0.4444 -0.5833 0.8333 -1.1944 0.8333 -1.3333 0 -0.1944 1.3889 -2.1111 2.5 -3.4167 0.1389 -0.1944 0.2778 -0.4167 0.2778 -0.5 0 -0.0833 0.6111 -0.9167 1.3333 -1.8889 0.7222 -0.9444 1.5278 -2.0278 1.7778 -2.4167 0.2222 -0.3889 1.4444 -1.8333 2.6944 -3.25 1.2222 -1.3889 2.25 -2.6944 2.25 -2.8611 0 -0.4722 15.1667 -15.5556 15.6389 -15.5556 0.25 0 0.4722 -0.1111 0.5278 -0.2222 0.1944 -0.4722 7.8333 -6.5556 9.6111 -7.6944 0.6389 -0.4167 0.8889 -0.5833 2.4722 -1.8056 0.8056 -0.6111 1.5556 -1.1111 1.6667 -1.1111 0.1111 0 0.7222 -0.3889 1.3056 -0.8333 0.6111 -0.4722 1.25 -0.8333 1.4444 -0.8333 0.1944 0 0.3889 -0.0833 0.4444 -0.1944 0.1389 -0.3333 2.3056 -1.75 2.6667 -1.75 0.1667 0 0.4167 -0.1667 0.5278 -0.3611 0.1111 -0.1944 0.5278 -0.5 0.9167 -0.6944 0.3889 -0.1944 1.6944 -0.9167 2.9167 -1.5833 4.7222 -2.6111 15.25 -7.6389 16 -7.6389 0.1667 0 0.6389 -0.1667 1.0278 -0.3889 0.4167 -0.2222 1.6944 -0.75 2.8333 -1.1389 1.1389 -0.4167 2.7222 -0.9722 3.4722 -1.25 0.7778 -0.3056 1.7778 -0.6111 2.2222 -0.7222 0.4722 -0.1111 0.9722 -0.2778 1.1111 -0.3889 0.1667 -0.1111 0.7222 -0.3056 1.25 -0.4167 0.5278 -0.1111 1.3611 -0.3611 1.8056 -0.5556 0.4722 -0.1944 1.5833 -0.5 2.5 -0.6944 0.9167 -0.2222 1.8056 -0.4722 1.9444 -0.5556 0.1667 -0.1111 1.1667 -0.3611 2.2222 -0.5556 1.0833 -0.1944 2.0833 -0.4444 2.2222 -0.5556 0.1667 -0.1111 1.4167 -0.3611 2.7778 -0.5556 1.3889 -0.1944 2.6389 -0.4444 2.7778 -0.5556 0.1667 -0.1389 1.5833 -0.3889 3.1944 -0.5556 1.6111 -0.1667 3.1667 -0.4444 3.4722 -0.5556 0.6389 -0.2778 6.8333 -0.8333 9.1667 -0.8333 0.8333 0 1.5278 -0.1111 1.5278 -0.2778 0 -0.1667 3.6111 -0.2778 10.2778 -0.2778 6.6667 0 10.2778 0.1111 10.2778 0.2778 0 0.1667 0.6944 0.2778 1.5278 0.2778 2.3333 0 8.5278 0.5556 9.1667 0.8333 0.3056 0.1111 1.8611 0.3889 3.4722 0.5556 1.6111 0.1667 3.0556 0.4167 3.1944 0.5556 0.1667 0.1111 1.4167 0.3611 2.7778 0.5556 1.3889 0.1944 2.6389 0.4444 2.7778 0.5556 0.1667 0.1111 1.1667 0.3611 2.2222 0.5556 1.0833 0.1944 2.0833 0.4444 2.2222 0.5556 0.1667 0.0833 1.0278 0.3333 1.9444 0.5556 0.9167 0.1944 2.0556 0.5 2.5 0.6944 0.4722 0.1944 1.2778 0.4444 1.8056 0.5556 0.5278 0.1111 1.1111 0.3056 1.25 0.4167 0.1667 0.1111 0.6667 0.2778 1.1111 0.3889 0.4722 0.1111 1.4722 0.4167 2.2222 0.7222 0.7778 0.2778 2.3333 0.8333 3.4722 1.25 1.1389 0.3889 2.4167 0.9167 2.8333 1.1389 0.3889 0.2222 0.8611 0.3889 1.0278 0.3889 0.75 0 11.2778 5.0278 16 7.6389 1.2222 0.6667 2.5278 1.3889 2.9167 1.5833 0.3889 0.1944 0.8056 0.5 0.9167 0.6944 0.1111 0.1944 0.3611 0.3611 0.5278 0.3611 0.3611 0 2.5278 1.4167 2.6667 1.75 0.0556 0.1111 0.25 0.1944 0.4444 0.1944 0.1944 0 0.8333 0.3611 1.4444 0.8333 0.5833 0.4444 1.1944 0.8333 1.3056 0.8333 0.1111 0 0.8611 0.5 1.6667 1.1111 1.5833 1.2222 1.8333 1.3889 2.4722 1.8056 1.7778 1.1389 9.4167 7.2222 9.6111 7.6944 0.0556 0.1111 0.2778 0.2222 0.5278 0.2222 0.4444 0 15.6389 15.0833 15.6389 15.5278 0 0.1667 1.1667 1.6667 2.5833 3.3333 2.25 2.6944 4.5278 5.6111 5.3333 6.9167 0.3889 0.6111 0.5278 0.8056 1.8056 2.4444 0.6111 0.8056 1.1111 1.5556 1.1111 1.6667 0 0.1389 0.3889 0.75 0.8333 1.3333 0.4722 0.6111 0.8333 1.25 0.8333 1.4444 0 0.1944 0.0833 0.3889 0.2222 0.4444 0.3056 0.1389 1.7222 2.3056 1.7222 2.6667 0 0.1667 0.1667 0.4167 0.3611 0.5278 0.1944 0.1111 0.5 0.5278 0.6944 0.9167 0.1944 0.3889 0.9167 1.6944 1.5833 2.9167 1.0833 1.9722 4.0278 7.8333 5.8611 11.6667 0.3611 0.7778 0.6667 1.6111 0.6667 1.8889 0 0.25 0.1111 0.4722 0.2222 0.4722 0.1389 0 0.4167 0.5278 0.6111 1.1944 0.2222 0.6389 0.5278 1.4167 0.7222 1.7222 0.1944 0.3056 0.4444 1.0278 0.5278 1.6111 0.1111 0.5556 0.3056 1.0278 0.4167 1.0278 0.1111 0 0.4444 0.8333 0.7222 1.8889 0.2778 1.0278 0.6389 2.1111 0.8333 2.4167 0.1944 0.3056 0.4444 1.0833 0.5556 1.7222 0.1111 0.6667 0.2778 1.1944 0.3889 1.1944 0.1111 0 0.3611 0.75 0.5556 1.6667 0.1944 0.9167 0.4722 1.6667 0.5833 1.6667 0.1389 0 0.25 0.2778 0.25 0.6389 0.0278 0.6667 0.6111 2.9444 0.8611 3.3889 0.1111 0.1667 0.3333 1.1667 0.5278 2.2222 0.1944 1.0833 0.4444 2.0833 0.5556 2.2222 0.1111 0.1667 0.3611 1.4167 0.5556 2.7778 0.1944 1.3889 0.4444 2.6389 0.5556 2.7778 0.1389 0.1667 0.3889 1.5833 0.5556 3.1944 0.1667 1.6111 0.4444 3.1667 0.5556 3.4722 0.2778 0.6389 0.8333 6.8333 0.8333 9.1667 0 0.8333 0.1389 1.5278 0.2778 1.5278 0.3611 0 0.3889 19.8056 0.0278 20.5 -0.1389 0.25 -0.4167 2.6389 -0.5833 5.3056 -0.1667 2.6667 -0.4444 5.0278 -0.5556 5.2778 -0.1389 0.25 -0.3889 1.75 -0.5556 3.3611 -0.1944 1.6111 -0.4167 3.0556 -0.5556 3.1944 -0.1111 0.1667 -0.3611 1.4167 -0.5556 2.7778 -0.1944 1.3889 -0.4444 2.6389 -0.5556 2.7778 -0.1111 0.1667 -0.3611 1.1667 -0.5556 2.2222 -0.1944 1.0833 -0.4444 2.0833 -0.5556 2.2222 -0.1111 0.1667 -0.3611 1.1111 -0.5833 2.1667 -0.1944 1.0278 -0.4444 1.8611 -0.5278 1.8611 -0.1111 0 -0.3611 0.75 -0.5556 1.6667 -0.1944 0.9167 -0.4444 1.6667 -0.5556 1.6667 -0.1111 0 -0.2778 0.6111 -0.3889 1.3889 -0.1111 0.75 -0.3611 1.5278 -0.5556 1.7222 -0.1944 0.2222 -0.5278 1.0556 -0.7222 1.8889 -0.1944 0.8333 -0.5 1.7778 -0.6944 2.1111 -0.2222 0.3333 -0.4722 1.0278 -0.5556 1.5833 -0.1111 0.5556 -0.3611 1.1389 -0.5833 1.3333 -0.2222 0.1667 -0.3889 0.5 -0.3889 0.75 0 0.4167 -0.4722 1.5278 -1.8333 4.3889 -0.3611 0.7778 -0.6667 1.6111 -0.6667 1.8333 0 0.25 -0.1667 0.5833 -0.3889 0.75 -0.2222 0.1944 -0.4722 0.6667 -0.5833 1.0833 -0.1111 0.4167 -0.3333 0.9444 -0.5556 1.1667 -0.1944 0.2222 -0.4444 0.7222 -0.5556 1.1111 -0.1111 0.3889 -0.3056 0.8333 -0.4444 1 -0.2222 0.25 -0.7222 1.1667 -2.9444 5.3889 -0.75 1.4444 -0.9722 1.8056 -2.3056 3.8889 -0.5278 0.8333 -1.0556 1.75 -1.1667 2 -0.1111 0.2778 -0.3333 0.5 -0.4722 0.5 -0.1389 0 -0.3333 0.3889 -0.4444 0.8611 -0.1111 0.4722 -0.3611 0.9167 -0.5833 1 -0.2222 0.0833 -0.3889 0.2778 -0.3889 0.4444 0 0.1389 -0.3056 0.6944 -0.6944 1.1944 -0.3889 0.5 -0.6944 1.0278 -0.6944 1.1944 0 0.1667 -0.25 0.4167 -0.5556 0.5833 -0.3056 0.1667 -0.5556 0.4722 -0.5556 0.6944 0 0.2222 -0.1667 0.5 -0.3333 0.6111 -0.1944 0.1111 -0.4722 0.4167 -0.6389 0.6667 -0.8611 1.4167 -2.5 3.6667 -3.4722 4.7778 -0.6111 0.6944 -1.1111 1.3611 -1.1111 1.5278 0 0.1389 -0.3056 0.4722 -0.6944 0.7222 -0.3889 0.25 -0.6944 0.6389 -0.6944 0.8333 0 0.2222 -0.4444 0.7778 -0.9722 1.25 -0.5278 0.4722 -0.9722 0.9167 -0.9722 1.0278 0 0.4444 -10.7778 11.6111 -12.8889 13.3056 -0.7778 0.6389 -4.9167 4.25 -6.0556 5.2778 -0.4167 0.3889 -0.8333 0.6944 -0.9167 0.6944 -0.1111 0 -0.8611 0.5556 -1.6389 1.25 -0.8056 0.6944 -1.6111 1.25 -1.7778 1.25 -0.1667 0 -0.4444 0.25 -0.6111 0.5556 -0.1667 0.3056 -0.4167 0.5556 -0.5833 0.5556 -0.25 0 -2.5278 1.6389 -3.6389 2.6389 -0.2778 0.2222 -0.5833 0.4167 -0.6944 0.4167 -0.0833 0 -0.5833 0.3056 -1.0833 0.6944 -0.5 0.3889 -1.0278 0.6944 -1.1944 0.6944 -0.1389 0 -0.3889 0.1667 -0.5 0.3611 -0.1111 0.1944 -0.5278 0.5 -0.9167 0.6944 -0.3889 0.1667 -1.5 0.8333 -2.4722 1.4444 -0.9444 0.6111 -1.8611 1.1111 -2 1.1111 -0.1389 0 -0.25 0.1111 -0.25 0.25 0 0.1389 -0.2222 0.3056 -0.4722 0.4167 -0.2778 0.0833 -1.25 0.5833 -2.1667 1.1111 -0.9167 0.5278 -2.4722 1.3889 -3.4722 1.8889 -1 0.5 -1.8611 1 -1.9444 1.0833 -0.0833 0.0833 -0.5833 0.3056 -1.1111 0.5278 -0.5278 0.2222 -1.0278 0.4722 -1.1111 0.5556 -0.0833 0.0833 -0.5833 0.3333 -1.1111 0.5278 -0.5278 0.2222 -1.8333 0.7778 -2.9167 1.2778 -1.0556 0.5 -2.4167 1.0833 -2.9722 1.2778 -0.5833 0.1944 -1.0556 0.4444 -1.0556 0.5556 0 0.0833 -0.3611 0.25 -0.8333 0.3333 -0.4444 0.1111 -1.3611 0.4167 -2.0278 0.7222 -0.6389 0.3056 -1.5556 0.6389 -2 0.75 -0.4722 0.1111 -0.9444 0.2778 -1.1111 0.3889 -0.1389 0.1111 -0.8611 0.3611 -1.5833 0.5833 -0.75 0.1944 -1.3333 0.4444 -1.3333 0.5556 0 0.1111 -0.8056 0.3333 -1.8056 0.5278 -1 0.1944 -1.8889 0.4444 -1.9444 0.5556 -0.0833 0.1389 -0.8611 0.3889 -1.75 0.5833 -0.8611 0.1944 -1.6944 0.4444 -1.8611 0.5556 -0.1389 0.1111 -1.0833 0.3611 -2.0833 0.5278 -1 0.1944 -1.9167 0.4444 -2.0833 0.5556 -0.1389 0.1111 -1.2222 0.3611 -2.3611 0.5556 -1.1389 0.1944 -2.1944 0.4444 -2.3611 0.5556 -0.1389 0.1111 -1.3889 0.3611 -2.7778 0.5556 -1.3611 0.1944 -2.6111 0.4444 -2.7778 0.5556 -0.1389 0.1111 -1.8333 0.3611 -3.75 0.5556 -1.9167 0.1667 -3.7222 0.4444 -4.0278 0.5556 -1.6944 0.75 -22.9444 1.0833 -31.8056 0.5z m29.1667 -6.5833 c0.8333 -0.1389 2.7222 -0.3889 4.1667 -0.5556 3.6944 -0.4167 9.9722 -1.6111 14.3056 -2.6944 5.1111 -1.2778 13.9167 -4.0556 16.6667 -5.25 0.4722 -0.1944 1.9722 -0.8333 3.3333 -1.3889 15.6944 -6.4722 29.5833 -15.3333 42.0556 -26.8333 6.5 -6 11.8056 -11.9444 17.5833 -19.75 3.2778 -4.4167 4.0556 -5.5556 6.7778 -9.9167 4.3889 -7.0278 10.0833 -18.8333 12.3333 -25.5833 0.1389 -0.3889 0.5 -1.3889 0.8333 -2.2222 0.3333 -0.8333 0.8333 -2.3333 1.1111 -3.3333 0.3056 -1 0.8056 -2.6667 1.1111 -3.75 0.6389 -2 1.5833 -5.5833 1.8333 -6.8056 1.8056 -8.6389 2.0556 -10.0278 2.3333 -12.6389 0.1389 -1.3611 0.4167 -3.3611 0.6111 -4.4444 0.4722 -2.7222 0.4722 -27.5556 0 -30.2778 -0.1944 -1.0556 -0.4722 -3.0556 -0.6111 -4.4444 -0.2778 -2.6111 -0.5278 -4 -2.3333 -12.6389 -0.25 -1.2222 -1.1944 -4.8056 -1.8333 -6.8056 -0.3056 -1.0556 -0.8056 -2.75 -1.1111 -3.75 -0.2778 -1 -0.7778 -2.5 -1.1111 -3.3333 -0.3333 -0.8333 -0.6944 -1.8333 -0.8333 -2.2222 -2.25 -6.75 -7.9444 -18.5556 -12.3333 -25.5833 -2.7222 -4.3611 -3.5 -5.5 -6.7778 -9.9167 -5.7778 -7.8056 -11.0833 -13.75 -17.5833 -19.75 -12.4722 -11.4722 -26.25 -20.2778 -42.0556 -26.8333 -1.3611 -0.5833 -2.8056 -1.1667 -3.1944 -1.3333 -4.2778 -1.8056 -14.7778 -4.9444 -20.4167 -6.1389 -5.3333 -1.1111 -6.5556 -1.3333 -9.5833 -1.6944 -1.75 -0.2222 -4.1944 -0.5556 -5.4167 -0.75 -3.0833 -0.4722 -27.4444 -0.4722 -30.5556 0 -1.2222 0.1944 -3.5833 0.5278 -5.2778 0.7222 -5.1667 0.6667 -10.1944 1.6944 -16.3889 3.4167 -4.6667 1.3056 -12.1944 3.7778 -13.4444 4.4167 -0.3889 0.2222 -0.8611 0.3889 -1 0.3889 -0.3056 0 -5.2778 2.1667 -6.6667 2.8889 -0.4444 0.25 -0.9722 0.4444 -1.1389 0.4444 -0.5 0 -7.5833 3.6944 -12.7222 6.6389 -4.4444 2.5556 -13.0556 8.6944 -19.3333 13.8333 -2.3333 1.9167 -10.1667 9.5278 -13.1944 12.8333 -2.8611 3.1111 -10.9444 13.3889 -12.2222 15.5278 -0.1389 0.25 -0.6944 1.0556 -1.1667 1.7778 -0.5 0.7222 -0.9167 1.3611 -0.9167 1.4722 0 0.0833 -0.3056 0.5833 -0.6944 1.0833 -0.3889 0.5 -0.6944 1 -0.6944 1.0833 0 0.0833 -0.4722 0.8889 -1.0556 1.7778 -0.5833 0.8889 -1.4167 2.3056 -1.8333 3.1389 -0.4444 0.8333 -1.0833 2.0278 -1.4444 2.6389 -0.3611 0.6111 -0.7778 1.4167 -0.9444 1.7778 -0.1667 0.3611 -0.8333 1.7778 -1.5 3.1944 -5.1111 10.6389 -8.7778 21.2778 -10.9444 31.6944 -1.1111 5.4167 -1.4444 7.25 -1.6944 9.7222 -0.1667 1.3889 -0.4444 3.5 -0.6389 4.7222 -0.4722 3.0833 -0.5 27.1944 0 30.1389 0.1944 1.1389 0.4722 3.2222 0.6111 4.5833 0.2778 2.6111 0.5278 4 2.3333 12.6389 0.25 1.2222 1.1944 4.8056 1.8333 6.8056 0.3056 1.0833 0.8056 2.75 1.1111 3.75 0.2778 1 0.7778 2.5 1.1111 3.3333 0.3333 0.8333 0.6944 1.8333 0.8333 2.2222 2.25 6.7778 7.9722 18.6111 12.3333 25.5833 3.4167 5.4167 5.0556 7.7778 9.4444 13.4444 4.1667 5.3889 9.6944 11.3889 14.9167 16.2222 12.4722 11.5 26.3611 20.3611 42.0556 26.8333 1.3889 0.5556 2.8889 1.1944 3.3333 1.3889 2.75 1.1944 11.5556 3.9722 16.6667 5.25 4.3611 1.0833 10.7778 2.3056 13.3333 2.5278 1.0833 0.0833 2.5 0.2778 3.1944 0.4444 0.6944 0.1389 2.6389 0.3889 4.3056 0.5 3.75 0.3056 26.0833 0.1389 28.1944 -0.2222z"/>
  <path d="M34.5278 210.4445 c-0.8056 -0.1944 -1.8889 -0.6944 -2.4444 -1.1111 -0.9444 -0.7222 -2.9167 -3.3333 -2.9167 -3.9167 0 -0.1389 -0.3333 -0.8889 -0.6944 -1.6667 -0.3889 -0.75 -0.6944 -1.5833 -0.6944 -1.8056 0 -0.2222 -0.1944 -0.6667 -0.4167 -0.9444 -0.2222 -0.3056 -0.4167 -0.75 -0.4167 -1 0 -0.2222 -0.2222 -0.8611 -0.5278 -1.3889 -0.2778 -0.5278 -0.6111 -1.4167 -0.7222 -1.9444 -0.1111 -0.5278 -0.3611 -1.3333 -0.5833 -1.8056 -0.7222 -1.7222 -1.1667 -3.1944 -3 -10.2778 -1.3611 -5.1389 -2.8333 -13.1944 -3.3889 -18.4722 -0.0556 -0.5278 -0.25 -4 -0.4167 -7.6667 -0.4444 -8.3056 -0.0556 -17.8889 0.9722 -25.1111 0.8611 -6 2.1667 -12.1667 4 -18.75 0.75 -2.6667 2.8333 -8.8333 3.1111 -9.1667 0.1111 -0.1389 0.3056 -0.7222 0.4167 -1.25 0.1111 -0.5278 0.3611 -1.2778 0.5556 -1.6667 0.8889 -1.8611 1.5 -3.25 1.6667 -3.8889 0.1111 -0.3889 0.3611 -0.9444 0.5556 -1.25 0.1667 -0.3056 0.75 -1.5 1.25 -2.6389 0.5 -1.1389 1.1944 -2.5278 1.5278 -3.0556 0.3333 -0.5278 1.25 -2.2222 2.0556 -3.75 1.5556 -2.9722 2.0556 -3.75 5.8889 -9.5833 4.6944 -7.1667 8.8611 -12.1667 16.0833 -19.3056 8.4722 -8.3611 11.5 -10.8889 18.8889 -15.8611 2.2222 -1.4722 4.7222 -3.1667 5.5833 -3.75 0.8611 -0.5556 1.9722 -1.2222 2.5 -1.4722 0.5278 -0.2222 1.9444 -1 3.1667 -1.6944 1.2222 -0.6944 3.4167 -1.8333 4.8611 -2.5278 2.8611 -1.3611 5.4444 -2.5833 6.1389 -2.9167 0.25 -0.1111 1.5 -0.6111 2.7778 -1.0833 1.2778 -0.5 2.6389 -1.0556 3.0278 -1.25 0.3889 -0.1944 1.1389 -0.4444 1.6667 -0.5556 0.5278 -0.1111 1.3333 -0.3611 1.8056 -0.5833 1.7778 -0.75 3.1667 -1.1667 10.6944 -3.1111 4.0556 -1.0556 9.6944 -2.1667 12.9167 -2.5556 1.3889 -0.1667 3 -0.4167 3.6111 -0.5556 0.6111 -0.1389 4.4444 -0.4167 8.5 -0.6111 8.3333 -0.3611 19 -0.0278 24.1389 0.7778 5.3056 0.8333 11.75 2.0833 15 2.9444 1.75 0.4444 3.9167 1 4.7778 1.2222 2 0.5 9.1667 2.8611 9.5278 3.1667 0.1667 0.1111 0.7222 0.3056 1.25 0.4167 0.5278 0.1111 1.2778 0.3611 1.6667 0.5556 0.8333 0.3889 2.1667 1 6.1111 2.75 1.6111 0.7222 3.3056 1.5 3.75 1.75 1.3056 0.6944 6.2778 3.4167 7.5 4.0833 0.6111 0.3611 1.5556 0.9167 2.0833 1.25 0.5278 0.3611 2.5556 1.6667 4.4722 2.9167 1.9167 1.2222 4.0556 2.6944 4.7222 3.25 0.6667 0.5278 1.6944 1.3056 2.2778 1.6944 2.25 1.5278 7.7222 6.4722 13 11.75 7.6389 7.6944 7.5556 7.5833 8.9444 9.4444 0.6944 0.9167 2.3056 3.0556 3.5833 4.7222 3.1111 4.0833 6.0556 8.5556 6.3333 9.6667 0.5278 1.9444 0.5278 3.0556 0.1111 4.8056 -0.3611 1.4444 -0.6944 2.0556 -1.6667 3 -2.1667 2.1944 -0.9444 2.1111 -32.4722 2.1111 l-27.6389 0 0 14.6667 c-0.0278 15.5833 -0.1111 16.8889 -1.3611 18.6389 -0.3333 0.4722 -0.9722 1.1111 -1.4444 1.4444 -1.8611 1.3056 -2.4444 1.3333 -27.6667 1.3611 l-23.6944 0 0 16.3333 c-0.0278 17.3611 -0.1111 18.5278 -1.3611 20.3056 -0.3333 0.4722 -0.9722 1.1111 -1.4444 1.4444 -1.8611 1.3056 -2.5 1.3333 -26.6944 1.3611 l-22.7222 0 0 17.7778 c0 20.5278 0 20.5 -2.1111 22.6111 -2.1667 2.1944 -1.1944 2.1111 -30.1667 2.0833 -19.3889 -0.0278 -25.6944 -0.1111 -26.8056 -0.3611z m52.4167 -27.5278 l0 -21.25 26.1111 0 26.1111 0 0 -19.7222 0 -19.7222 27.2222 0 27.2222 0 0 -18.0556 0 -18.0556 30.9722 0 30.9722 0 0 -0.5833 c0 -0.3333 -0.3611 -1.0556 -0.8333 -1.6389 -0.4444 -0.5833 -0.8333 -1.1944 -0.8333 -1.3611 0 -0.1667 -0.1111 -0.3056 -0.2778 -0.3056 -0.1389 0 -0.2778 -0.1389 -0.2778 -0.3056 0 -0.1667 -0.6111 -1.1111 -1.3889 -2.0833 -0.75 -0.9722 -1.3889 -1.8333 -1.3889 -1.9167 0 -0.0833 -0.1944 -0.3611 -0.4167 -0.6111 -1.3056 -1.5 -3.1944 -3.9722 -3.1944 -4.1944 0 -0.1389 -0.3056 -0.5 -0.6944 -0.7778 -0.3889 -0.2778 -0.6944 -0.6944 -0.6944 -0.8889 0 -0.4722 -15.1111 -15.6111 -15.5556 -15.6111 -0.1944 0 -0.6944 -0.3056 -1.0833 -0.6944 -1.1667 -1.1389 -4.1111 -3.4722 -4.3889 -3.4722 -0.1389 0 -0.4167 -0.25 -0.6389 -0.5556 -0.2222 -0.3056 -0.5 -0.5556 -0.6111 -0.5556 -0.1111 0 -0.9444 -0.5556 -1.8611 -1.25 -0.8889 -0.6944 -1.7222 -1.25 -1.8056 -1.25 -0.0833 0 -0.8056 -0.4722 -1.5833 -1.0278 -1.5278 -1.0833 -2.8611 -1.8889 -3.6389 -2.1944 -0.2778 -0.0833 -0.5 -0.2778 -0.5 -0.4167 0 -0.1111 -0.5833 -0.4722 -1.3056 -0.8056 -0.7222 -0.3056 -1.3889 -0.6667 -1.4722 -0.7778 -0.25 -0.3333 -5.8056 -3.1944 -9.5833 -4.9167 -1.0556 -0.5 -2.5278 -1.1667 -3.2222 -1.5 -0.6944 -0.3056 -1.3889 -0.5833 -1.5278 -0.5833 -0.1389 -0.0278 -0.75 -0.25 -1.3611 -0.5556 -0.6111 -0.3056 -1.3056 -0.5278 -1.5278 -0.5556 -0.25 0 -0.6944 -0.1944 -1 -0.4167 -0.3333 -0.2222 -0.6667 -0.3333 -0.75 -0.2222 -0.1111 0.0833 -0.3333 0.0278 -0.5278 -0.1111 -0.1944 -0.1389 -0.9722 -0.4444 -1.75 -0.6389 -0.75 -0.1944 -1.5 -0.4444 -1.6667 -0.5556 -0.1389 -0.1111 -0.8889 -0.3611 -1.6667 -0.5278 -0.75 -0.1944 -1.6389 -0.4722 -1.9444 -0.6111 -0.5556 -0.2222 -1.9722 -0.6111 -6.5278 -1.6667 -7.0833 -1.6667 -14.2778 -2.6389 -22.4722 -3.0833 -12.6667 -0.6667 -27.5556 0.9167 -39.0556 4.1667 -1.0556 0.3056 -2.6944 0.75 -3.6111 1.0278 -0.9167 0.25 -2.0278 0.6111 -2.5 0.8056 -0.4444 0.2222 -1.2778 0.4722 -1.8056 0.5833 -0.5278 0.1111 -1.0833 0.3056 -1.25 0.4167 -0.1389 0.1111 -0.9722 0.4167 -1.8056 0.6667 -1.5 0.4722 -1.8333 0.6111 -4.4444 1.7778 -0.6944 0.3056 -1.5556 0.6389 -1.9444 0.75 -0.3889 0.1111 -0.75 0.2778 -0.8333 0.3889 -0.1944 0.25 -2.5 1.3056 -3.5556 1.6667 -0.5 0.1667 -1.4444 0.6389 -2.0833 1.0833 -0.6389 0.4167 -1.6111 0.9444 -2.1389 1.1667 -0.5278 0.2222 -1.0278 0.4444 -1.1111 0.5278 -0.1944 0.25 -1.6667 1.0556 -2.7778 1.5833 -0.5278 0.25 -1.4167 0.8056 -1.9722 1.25 -0.5556 0.4444 -1.1389 0.8056 -1.2778 0.8056 -0.1389 0 -0.75 0.3611 -1.3611 0.8333 -0.5833 0.4444 -1.1944 0.8333 -1.3056 0.8333 -0.1111 0 -0.8889 0.5 -1.6944 1.1111 -0.8056 0.6111 -1.5556 1.1111 -1.6667 1.1111 -0.1111 0 -1.1111 0.7222 -2.1944 1.6111 -1.1111 0.9167 -2.1389 1.6944 -2.3333 1.75 -0.1667 0.0556 -1.5833 1.25 -3.1389 2.6111 -1.5833 1.3889 -3.1111 2.6389 -3.4167 2.8333 -0.8333 0.4722 -9.9167 9.6111 -9.9167 9.9722 0 0.1667 -0.5556 0.8333 -1.25 1.4722 -0.6944 0.6389 -1.25 1.2222 -1.25 1.3056 0 0.0833 -0.6944 0.9444 -1.5278 1.9167 -0.8333 0.9444 -1.5278 1.8056 -1.5278 1.9167 0 0.1111 -0.9444 1.3611 -2.0833 2.7778 -1.1389 1.4167 -2.0833 2.6944 -2.0833 2.8056 0 0.1389 -0.3056 0.6389 -0.6944 1.1389 -0.3889 0.5 -0.6944 1.0278 -0.6944 1.1944 0 0.1389 -0.1667 0.3889 -0.3333 0.5 -0.1944 0.1111 -0.5278 0.5278 -0.7222 0.8889 -0.2222 0.3611 -0.6389 1.1111 -0.9444 1.6667 -0.3056 0.5556 -0.7222 1.1944 -0.8889 1.4167 -0.3889 0.4444 -1.2222 1.9444 -3.1389 5.5556 -2.3056 4.3611 -3.1944 6.1667 -4.8056 10 -0.4722 1.1389 -0.9722 2.3333 -1.1111 2.6389 -0.1389 0.3056 -0.3333 0.8611 -0.4167 1.25 -0.1111 0.3889 -0.3611 1.0833 -0.5833 1.5278 -0.5 1.1111 -2.4444 7.1389 -2.8889 8.8889 -0.1667 0.7778 -0.4444 1.6389 -0.5556 1.9444 -0.8889 2.0833 -2.9722 13.4167 -3.6667 19.8611 -0.3889 3.7222 -0.3889 22 0 25.6944 0.3889 3.5 1.2778 9.2222 2 12.6389 0.8333 4.1111 2.4444 10.4444 2.9722 11.6667 0.1667 0.3889 0.3889 1.1389 0.5 1.6667 0.1111 0.5278 0.3056 1.1111 0.4167 1.25 0.1389 0.1667 0.3889 0.9167 0.5833 1.6667 0.1944 0.7778 0.5 1.6389 0.7222 1.9444 0.1944 0.3056 0.3611 0.7222 0.3611 0.9722 0 0.2222 0.1667 0.75 0.3889 1.1667 0.2222 0.3889 0.5278 1.1944 0.7222 1.8056 0.1944 0.5833 0.5278 1.3056 0.7222 1.6111 0.2222 0.3056 0.3889 0.7222 0.3889 0.9444 0 0.1944 0.25 0.8056 0.5833 1.3056 l0.5833 0.9444 25.3889 0 25.3889 0 0 -21.25z"/>
</g>

</svg>